<svg xmlns="http://www.w3.org/2000/svg" width="1600" height="900" viewBox="0 0 1600 900" role="img" aria-labelledby="title desc">
<title id='title'>Luồng thương mại</title>
<desc id='desc'>Bản thiết kế UI/UX có thể chỉnh sửa.</desc>
<defs>
          <filter id="shadow" x="-20%" y="-20%" width="140%" height="140%">
            <feDropShadow dx="0" dy="8" stdDeviation="12" flood-color="#0F172A" flood-opacity=".10"/>
          </filter>
          <linearGradient id="brandGrad" x1="0" y1="0" x2="1" y2="1">
            <stop offset="0%" stop-color="#6C5CE7"/><stop offset="100%" stop-color="#496DFF"/>
          </linearGradient>
          <style>
            text { font-family: "DejaVu Sans", Arial, sans-serif; }
            .t { fill: #0F172A; }
            .m { fill: #64748B; }
          </style>
        </defs>
<rect x="0" y="0" width="1600" height="900" fill="#F8FAFC" stroke="none" stroke-width="1" rx="0" opacity="1"/>
<rect x="0" y="0" width="1600" height="110" fill="url(#brandGrad)" stroke="none" stroke-width="1" rx="0" opacity="1"/>
<text x="56" y="54" font-size="30" font-weight="800" fill="#FFFFFF" text-anchor="start" opacity="1">Luồng thương mại</text>
<text x="56" y="84" font-size="14" font-weight="500" fill="#FFFFFF" text-anchor="start" opacity="0.92">Tạo đơn, giữ tồn kho, thanh toán giả lập và compensation</text>
<rect x="60" y="210" width="210" height="120" fill="#EEF2FF" stroke="#C7D2FE" stroke-width="1" rx="16" opacity="1"/>
<text x="165.0" y="244" font-size="15" font-weight="800" fill="#0F172A" text-anchor="middle" opacity="1">Tin đăng</text>
<text x="78" y="270" font-size="11" font-weight="500" fill="#64748B" text-anchor="start" opacity="1">Active + còn hàng</text>
<rect x="330" y="210" width="210" height="120" fill="#FFFFFF" stroke="#E2E8F0" stroke-width="1" rx="16" opacity="1"/>
<text x="435.0" y="244" font-size="15" font-weight="800" fill="#0F172A" text-anchor="middle" opacity="1">Xác nhận đơn</text>
<text x="348" y="270" font-size="11" font-weight="500" fill="#64748B" text-anchor="start" opacity="1">Giá snapshot + số lượng</text>
<rect x="600" y="210" width="210" height="120" fill="#FFFFFF" stroke="#E2E8F0" stroke-width="1" rx="16" opacity="1"/>
<text x="705.0" y="244" font-size="15" font-weight="800" fill="#0F172A" text-anchor="middle" opacity="1">Tạo đơn</text>
<text x="618" y="270" font-size="11" font-weight="500" fill="#64748B" text-anchor="start" opacity="1">Idempotency-Key</text>
<rect x="870" y="130" width="210" height="120" fill="#FFF7ED" stroke="#FED7AA" stroke-width="1" rx="16" opacity="1"/>
<text x="975.0" y="164" font-size="15" font-weight="800" fill="#0F172A" text-anchor="middle" opacity="1">Giữ tồn kho</text>
<text x="888" y="190" font-size="11" font-weight="500" fill="#64748B" text-anchor="start" opacity="1">Atomic, không oversell</text>
<rect x="870" y="320" width="210" height="120" fill="#FEF2F2" stroke="#FECACA" stroke-width="1" rx="16" opacity="1"/>
<text x="975.0" y="354" font-size="15" font-weight="800" fill="#0F172A" text-anchor="middle" opacity="1">Hết hàng</text>
<text x="888" y="380" font-size="11" font-weight="500" fill="#64748B" text-anchor="start" opacity="1">Hủy, không ghost order</text>
<rect x="1140" y="130" width="220" height="120" fill="#ECFDF5" stroke="#A7F3D0" stroke-width="1" rx="16" opacity="1"/>
<text x="1250.0" y="164" font-size="15" font-weight="800" fill="#0F172A" text-anchor="middle" opacity="1">AwaitingPayment</text>
<text x="1158" y="190" font-size="11" font-weight="500" fill="#64748B" text-anchor="start" opacity="1">OrderCreated</text>
<rect x="600" y="520" width="210" height="120" fill="#FFFFFF" stroke="#E2E8F0" stroke-width="1" rx="16" opacity="1"/>
<text x="705.0" y="554" font-size="15" font-weight="800" fill="#0F172A" text-anchor="middle" opacity="1">Thanh toán giả lập</text>
<text x="618" y="580" font-size="11" font-weight="500" fill="#64748B" text-anchor="start" opacity="1">Cùng khóa -&gt; cùng kết quả</text>
<rect x="870" y="520" width="210" height="120" fill="#FFF7ED" stroke="#FED7AA" stroke-width="1" rx="16" opacity="1"/>
<text x="975.0" y="554" font-size="15" font-weight="800" fill="#0F172A" text-anchor="middle" opacity="1">Thành công / lỗi</text>
<text x="888" y="580" font-size="11" font-weight="500" fill="#64748B" text-anchor="start" opacity="1">Persist một lần</text>
<rect x="1140" y="520" width="220" height="120" fill="#ECFDF5" stroke="#A7F3D0" stroke-width="1" rx="16" opacity="1"/>
<text x="1250.0" y="554" font-size="15" font-weight="800" fill="#0F172A" text-anchor="middle" opacity="1">Xác nhận hoặc bù</text>
<text x="1158" y="580" font-size="11" font-weight="500" fill="#64748B" text-anchor="start" opacity="1">Release tồn kho một lần</text>
<line x1="270" y1="270" x2="330" y2="270" stroke="#64748B" stroke-width="2" opacity="1"/>
<polygon points="330,270 321.5567207449798,275.35826794979 321.5567207449798,264.64173205021" fill="#64748B" stroke="none" stroke-width="1"/>
<line x1="540" y1="270" x2="600" y2="270" stroke="#64748B" stroke-width="2" opacity="1"/>
<polygon points="600,270 591.5567207449799,275.35826794979 591.5567207449799,264.64173205021" fill="#64748B" stroke="none" stroke-width="1"/>
<line x1="810" y1="250" x2="870" y2="190" stroke="#64748B" stroke-width="2" opacity="1"/>
<polygon points="870,190 867.8185675860345,199.75916761938748 860.2408323806126,192.1814324139654" fill="#64748B" stroke="none" stroke-width="1"/>
<line x1="810" y1="290" x2="870" y2="380" stroke="#64748B" stroke-width="2" opacity="1"/>
<polygon points="870,380 860.8581629156921,375.94699929385973 869.7748597652197,370.002534727508" fill="#64748B" stroke="none" stroke-width="1"/>
<line x1="1080" y1="190" x2="1140" y2="190" stroke="#64748B" stroke-width="2" opacity="1"/>
<polygon points="1140,190 1131.5567207449799,195.35826794978996 1131.5567207449799,184.64173205021004" fill="#64748B" stroke="none" stroke-width="1"/>
<line x1="1250" y1="250" x2="705" y2="520" stroke="#64748B" stroke-width="2" opacity="1"/>
<polygon points="705,520 710.1870751640354,511.4504823970795 714.9443840012947,521.0531983833993" fill="#64748B" stroke="none" stroke-width="1"/>
<line x1="810" y1="580" x2="870" y2="580" stroke="#64748B" stroke-width="2" opacity="1"/>
<polygon points="870,580 861.5567207449799,585.3582679497899 861.5567207449799,574.6417320502101" fill="#64748B" stroke="none" stroke-width="1"/>
<line x1="1080" y1="580" x2="1140" y2="580" stroke="#64748B" stroke-width="2" opacity="1"/>
<polygon points="1140,580 1131.5567207449799,585.3582679497899 1131.5567207449799,574.6417320502101" fill="#64748B" stroke="none" stroke-width="1"/>
</svg>
