<svg xmlns="http://www.w3.org/2000/svg" width="390" height="844" viewBox="0 0 390 844" role="img" aria-labelledby="title desc">
<title id="title">RTC-03 - Chia sẻ màn hình - Mobile</title><desc id="desc">Twight Light UI/UX vòng duyệt 2, SVG chỉnh sửa được.</desc>
<defs>
  <linearGradient id="brand" x1="0" y1="0" x2="1" y2="1"><stop offset="0" stop-color="#6C5CE7"/><stop offset="1" stop-color="#496DFF"/></linearGradient>
  <linearGradient id="twilight" x1="0" y1="0" x2="1" y2="1"><stop offset="0" stop-color="#07162B"/><stop offset=".58" stop-color="#2B245B"/><stop offset="1" stop-color="#E05A78"/></linearGradient>
  <linearGradient id="media" x1="0" y1="0" x2="1" y2="1"><stop offset="0" stop-color="#73B8FF"/><stop offset=".5" stop-color="#7C62E5"/><stop offset="1" stop-color="#FF9A8B"/></linearGradient>
  <filter id="shadow" x="-20%" y="-20%" width="140%" height="150%"><feDropShadow dx="0" dy="12" stdDeviation="16" flood-color="#07162B" flood-opacity=".14"/></filter>
  <filter id="tinyShadow" x="-20%" y="-20%" width="140%" height="150%"><feDropShadow dx="0" dy="5" stdDeviation="8" flood-color="#07162B" flood-opacity=".12"/></filter>
  <style>
    text { font-family: Inter, "Be Vietnam Pro", "DejaVu Sans", Arial, sans-serif; }
    .small { letter-spacing:.02em; }
  </style>
</defs><rect x="0" y="0" width="390" height="844" rx="0" fill="#090B12" stroke="none" stroke-width="1" opacity="1" /><rect x="0" y="0" width="390" height="58" rx="0" fill="#111522" stroke="none" stroke-width="1" opacity="1" /><rect x="12" y="9" width="40" height="40" rx="11" fill="url(#brand)" stroke="none" stroke-width="1" opacity="1" /><text x="32" y="36" font-size="18" font-weight="900" fill="#FFFFFF" text-anchor="middle" class="">T</text><text x="62" y="28" font-size="13" font-weight="900" fill="#FFFFFF" text-anchor="start" class="">Twight Light Call</text><text x="62" y="44" font-size="8" font-weight="600" fill="#AAB2C7" text-anchor="start" class="">Cửa sổ riêng</text><rect x="12" y="78" width="366" height="400" rx="14" fill="url(#media)" stroke="none" stroke-width="1" opacity="1" /><rect x="24" y="92" width="190" height="28" rx="14" fill="#07162BCC" stroke="none" stroke-width="1" opacity="1" /><text x="119.0" y="111" font-size="11" font-weight="700" fill="#FFFFFF" text-anchor="middle" class="">Đang chia sẻ màn hình</text><rect x="254" y="352" width="104" height="82" rx="10" fill="#181E2E" stroke="#303A54" stroke-width="1" opacity="1" /><circle cx="306" cy="384" r="24" fill="#6C5CE7" stroke="none" stroke-width="1" /><circle cx="306" cy="378.72" r="6.720000000000001" fill="#FFE0CC" stroke="none" stroke-width="1" /><path d="M 293.52 395.52 Q 306 382.8 318.48 395.52 Z" fill="#FFFFFF" opacity=".95"/><circle cx="323.76" cy="401.28" r="5.28" fill="#10B981" stroke="#FFFFFF" stroke-width="2" /><text x="306" y="424" font-size="8" font-weight="700" fill="#FFFFFF" text-anchor="middle" class="">Camera bạn</text><text x="20" y="530" font-size="10" font-weight="700" fill="#AAB2C7" text-anchor="start" class="">Camera bản thân</text><rect x="246" y="508" width="120" height="28" rx="14" fill="#232B42" stroke="none" stroke-width="1" opacity="1" /><text x="306.0" y="527" font-size="11" font-weight="700" fill="#FFFFFF" text-anchor="middle" class="">Bật</text><text x="20" y="580" font-size="10" font-weight="700" fill="#AAB2C7" text-anchor="start" class="">Mic / Loa</text><rect x="246" y="558" width="120" height="28" rx="14" fill="#232B42" stroke="none" stroke-width="1" opacity="1" /><text x="306.0" y="577" font-size="11" font-weight="700" fill="#FFFFFF" text-anchor="middle" class="">Thiết bị ⌄</text><text x="20" y="630" font-size="10" font-weight="700" fill="#AAB2C7" text-anchor="start" class="">Ghi hình</text><rect x="220" y="608" width="146" height="28" rx="14" fill="#3A1820" stroke="none" stroke-width="1" opacity="1" /><text x="293.0" y="627" font-size="11" font-weight="700" fill="#FCA5A5" text-anchor="middle" class="">Cần xin phép</text><rect x="20" y="690" width="350" height="42" rx="12" fill="url(#brand)" stroke="none" stroke-width="1" opacity="1" filter="url(#tinyShadow)"/><text x="195.0" y="716.0" font-size="13" font-weight="700" fill="#FFFFFF" text-anchor="middle" class="">Dừng chia sẻ</text></svg>
