<svg xmlns="http://www.w3.org/2000/svg" width="1440" height="1024" viewBox="0 0 1440 1024" role="img" aria-labelledby="title desc">
<title id="title">AUTH-03 - Đăng ký - Desktop Final</title><desc id="desc">Twight Light UI/UX vòng duyệt 2, SVG chỉnh sửa được.</desc>
<defs>
  <linearGradient id="brand" x1="0" y1="0" x2="1" y2="1"><stop offset="0" stop-color="#6C5CE7"/><stop offset="1" stop-color="#496DFF"/></linearGradient>
  <linearGradient id="twilight" x1="0" y1="0" x2="1" y2="1"><stop offset="0" stop-color="#07162B"/><stop offset=".58" stop-color="#2B245B"/><stop offset="1" stop-color="#E05A78"/></linearGradient>
  <linearGradient id="media" x1="0" y1="0" x2="1" y2="1"><stop offset="0" stop-color="#73B8FF"/><stop offset=".5" stop-color="#7C62E5"/><stop offset="1" stop-color="#FF9A8B"/></linearGradient>
  <filter id="shadow" x="-20%" y="-20%" width="140%" height="150%"><feDropShadow dx="0" dy="12" stdDeviation="16" flood-color="#07162B" flood-opacity=".14"/></filter>
  <filter id="tinyShadow" x="-20%" y="-20%" width="140%" height="150%"><feDropShadow dx="0" dy="5" stdDeviation="8" flood-color="#07162B" flood-opacity=".12"/></filter>
  <style>
    text { font-family: Inter, "Be Vietnam Pro", "DejaVu Sans", Arial, sans-serif; }
    .small { letter-spacing:.02em; }
  </style>
</defs><rect x="0" y="0" width="1440" height="1024" rx="0" fill="#F6F8FC" stroke="none" stroke-width="1" opacity="1" /><rect x="0" y="0" width="780" height="1024" rx="0" fill="url(#twilight)" stroke="none" stroke-width="1" opacity="1" /><rect x="34" y="30" width="46" height="46" rx="13" fill="url(#brand)" stroke="none" stroke-width="1" opacity="1" /><text x="57" y="61" font-size="20" font-weight="900" fill="#FFFFFF" text-anchor="middle" class="">T</text><text x="94" y="50" font-size="18" font-weight="900" fill="#FFFFFF" text-anchor="start" class="">Twight Light</text><text x="94" y="68" font-size="11" font-weight="600" fill="#D8DAFF" text-anchor="start" class="">Multi Social Comunity</text><path d="M80 250 C210 120 400 380 680 170" fill="none" stroke="#FFFFFF" stroke-opacity=".22" stroke-width="2" stroke-dasharray="7 12"><animate attributeName="stroke-dashoffset" from="0" to="-38" dur="5s" repeatCount="indefinite"/></path><path d="M50 500 C280 650 380 300 720 520" fill="none" stroke="#FFFFFF" stroke-opacity=".22" stroke-width="2" stroke-dasharray="7 12"><animate attributeName="stroke-dashoffset" from="0" to="-38" dur="6s" repeatCount="indefinite"/></path><path d="M120 810 C300 630 490 920 690 700" fill="none" stroke="#FFFFFF" stroke-opacity=".22" stroke-width="2" stroke-dasharray="7 12"><animate attributeName="stroke-dashoffset" from="0" to="-38" dur="7s" repeatCount="indefinite"/></path><path d="M130 140 C300 330 520 40 730 260" fill="none" stroke="#FFFFFF" stroke-opacity=".22" stroke-width="2" stroke-dasharray="7 12"><animate attributeName="stroke-dashoffset" from="0" to="-38" dur="8s" repeatCount="indefinite"/></path><g><animateTransform attributeName="transform" type="translate" values="0 0; 8 -6; 0 0" dur="3.8s" repeatCount="indefinite"/><circle cx="130" cy="220" r="35" fill="#F97376" stroke="none" stroke-width="1" /><circle cx="130" cy="212.3" r="9.8" fill="#FFE0CC" stroke="none" stroke-width="1" /><path d="M 111.8 236.8 Q 130 218.25 148.2 236.8 Z" fill="#FFFFFF" opacity=".95"/><circle cx="155.9" cy="245.2" r="7.7" fill="#10B981" stroke="#FFFFFF" stroke-width="2" /></g><g><animateTransform attributeName="transform" type="translate" values="0 0; -7 7; 0 0" dur="4.07s" repeatCount="indefinite"/><circle cx="330" cy="160" r="35" fill="#6C5CE7" stroke="none" stroke-width="1" /><circle cx="330" cy="152.3" r="9.8" fill="#FFE0CC" stroke="none" stroke-width="1" /><path d="M 311.8 176.8 Q 330 158.25 348.2 176.8 Z" fill="#FFFFFF" opacity=".95"/></g><g><animateTransform attributeName="transform" type="translate" values="0 0; 8 7; 0 0" dur="4.34s" repeatCount="indefinite"/><circle cx="550" cy="290" r="35" fill="#22C1C3" stroke="none" stroke-width="1" /><circle cx="550" cy="282.3" r="9.8" fill="#FFE0CC" stroke="none" stroke-width="1" /><path d="M 531.8 306.8 Q 550 288.25 568.2 306.8 Z" fill="#FFFFFF" opacity=".95"/></g><g><animateTransform attributeName="transform" type="translate" values="0 0; -7 -6; 0 0" dur="4.609999999999999s" repeatCount="indefinite"/><circle cx="210" cy="485" r="35" fill="#F59E0B" stroke="none" stroke-width="1" /><circle cx="210" cy="477.3" r="9.8" fill="#FFE0CC" stroke="none" stroke-width="1" /><path d="M 191.8 501.8 Q 210 483.25 228.2 501.8 Z" fill="#FFFFFF" opacity=".95"/><circle cx="235.9" cy="510.2" r="7.7" fill="#10B981" stroke="#FFFFFF" stroke-width="2" /></g><g><animateTransform attributeName="transform" type="translate" values="0 0; 8 7; 0 0" dur="4.88s" repeatCount="indefinite"/><circle cx="480" cy="520" r="35" fill="#EC4899" stroke="none" stroke-width="1" /><circle cx="480" cy="512.3" r="9.8" fill="#FFE0CC" stroke="none" stroke-width="1" /><path d="M 461.8 536.8 Q 480 518.25 498.2 536.8 Z" fill="#FFFFFF" opacity=".95"/></g><g><animateTransform attributeName="transform" type="translate" values="0 0; -7 7; 0 0" dur="5.15s" repeatCount="indefinite"/><circle cx="650" cy="420" r="35" fill="#3B82F6" stroke="none" stroke-width="1" /><circle cx="650" cy="412.3" r="9.8" fill="#FFE0CC" stroke="none" stroke-width="1" /><path d="M 631.8 436.8 Q 650 418.25 668.2 436.8 Z" fill="#FFFFFF" opacity=".95"/></g><g><animateTransform attributeName="transform" type="translate" values="0 0; 8 -6; 0 0" dur="5.42s" repeatCount="indefinite"/><circle cx="130" cy="760" r="35" fill="#10B981" stroke="none" stroke-width="1" /><circle cx="130" cy="752.3" r="9.8" fill="#FFE0CC" stroke="none" stroke-width="1" /><path d="M 111.8 776.8 Q 130 758.25 148.2 776.8 Z" fill="#FFFFFF" opacity=".95"/><circle cx="155.9" cy="785.2" r="7.7" fill="#10B981" stroke="#FFFFFF" stroke-width="2" /></g><g><animateTransform attributeName="transform" type="translate" values="0 0; -7 7; 0 0" dur="5.6899999999999995s" repeatCount="indefinite"/><circle cx="380" cy="820" r="35" fill="#8B5CF6" stroke="none" stroke-width="1" /><circle cx="380" cy="812.3" r="9.8" fill="#FFE0CC" stroke="none" stroke-width="1" /><path d="M 361.8 836.8 Q 380 818.25 398.2 836.8 Z" fill="#FFFFFF" opacity=".95"/></g><g><animateTransform attributeName="transform" type="translate" values="0 0; 8 7; 0 0" dur="5.96s" repeatCount="indefinite"/><circle cx="630" cy="735" r="35" fill="#F97316" stroke="none" stroke-width="1" /><circle cx="630" cy="727.3" r="9.8" fill="#FFE0CC" stroke="none" stroke-width="1" /><path d="M 611.8 751.8 Q 630 733.25 648.2 751.8 Z" fill="#FFFFFF" opacity=".95"/></g><text x="74" y="875" font-size="26" font-weight="800" fill="#FFFFFF" text-anchor="start" class="">One human, boring!!!</text><text x="74" y="910" font-size="28" font-weight="900" fill="#FFFFFF" text-anchor="start" class="">One million humans, Nice, very nice</text><text x="74" y="944" font-size="13" font-weight="600" fill="#DDE1FF" text-anchor="start" class="">Kết nối cá tính. Khám phá cộng đồng. Tạo nên điều đáng nhớ.</text><text x="870" y="174" font-size="29" font-weight="900" fill="#0B1020" text-anchor="start" class="">Tạo tài khoản của bạn</text><text x="870" y="208" font-size="13" font-weight="500" fill="#64748B" text-anchor="start" class="">Chỉ vài bước để bước vào hàng triệu câu chuyện.</text><rect x="1090" y="24" width="326" height="82" rx="14" fill="#FFFFFF" stroke="#DCE3EE" stroke-width="1" opacity="1" filter="url(#shadow)"/><rect x="1090" y="24" width="5" height="82" rx="3" fill="#EF4444" stroke="#EF4444" stroke-width="1" opacity="1" /><circle cx="1118" cy="51" r="13" fill="#EF4444" stroke="none" stroke-width="1" /><text x="1118" y="56" font-size="13" font-weight="800" fill="#FFFFFF" text-anchor="middle" class="">!</text><text x="1139" y="51" font-size="13" font-weight="800" fill="#0B1020" text-anchor="start" class="">Mật khẩu chưa đủ mạnh</text><text x="1139" y="74" font-size="11" font-weight="500" fill="#64748B" text-anchor="start" class="">Hãy bổ sung ký tự đặc biệt.</text><text x="1398" y="48" font-size="16" font-weight="700" fill="#64748B" text-anchor="middle" class="">×</text><text x="870" y="254" font-size="11" font-weight="700" fill="#64748B" text-anchor="start" class="">Tên người dùng</text><rect x="870" y="262" width="470" height="46" rx="12" fill="#FFFFFF" stroke="#DCE3EE" stroke-width="1" opacity="1" /><text x="884" y="290.0" font-size="13" font-weight="500" fill="#0B1020" text-anchor="start" class="">minhsang</text><circle cx="1318" cy="285.0" r="11" fill="#10B981" stroke="none" stroke-width="1" /><text x="1318" y="290.0" font-size="13" font-weight="800" fill="#FFFFFF" text-anchor="middle" class="">✓</text><text x="870" y="324" font-size="11" font-weight="700" fill="#64748B" text-anchor="start" class="">Email</text><rect x="870" y="332" width="470" height="46" rx="12" fill="#FFFFFF" stroke="#DCE3EE" stroke-width="1" opacity="1" /><text x="884" y="360.0" font-size="13" font-weight="500" fill="#0B1020" text-anchor="start" class="">minhsang@example.com</text><circle cx="1318" cy="355.0" r="11" fill="#10B981" stroke="none" stroke-width="1" /><text x="1318" y="360.0" font-size="13" font-weight="800" fill="#FFFFFF" text-anchor="middle" class="">✓</text><text x="870" y="394" font-size="11" font-weight="700" fill="#64748B" text-anchor="start" class="">Mật khẩu</text><rect x="870" y="402" width="470" height="46" rx="12" fill="#FFFFFF" stroke="#DCE3EE" stroke-width="1" opacity="1" /><text x="884" y="430.0" font-size="13" font-weight="500" fill="#0B1020" text-anchor="start" class="">Twight2026</text><circle cx="1318" cy="425.0" r="11" fill="#EF4444" stroke="none" stroke-width="1" /><text x="1318" y="430.0" font-size="13" font-weight="800" fill="#FFFFFF" text-anchor="middle" class="">×</text><text x="870" y="470" font-size="11" font-weight="800" fill="#64748B" text-anchor="start" class="">Mức độ an toàn của mật khẩu</text><circle cx="880.0" cy="481" r="9" fill="#10B981" stroke="none" stroke-width="1" /><text x="880.0" y="485" font-size="11" font-weight="900" fill="#FFFFFF" text-anchor="middle" class="">✓</text><text x="897.0" y="485" font-size="11" font-weight="700" fill="#0B1020" text-anchor="start" class="">Tối thiểu 8 ký tự</text><circle cx="1090.0" cy="481" r="9" fill="#10B981" stroke="none" stroke-width="1" /><text x="1090.0" y="485" font-size="11" font-weight="900" fill="#FFFFFF" text-anchor="middle" class="">✓</text><text x="1107.0" y="485" font-size="11" font-weight="700" fill="#0B1020" text-anchor="start" class="">Có chữ hoa và chữ thường</text><circle cx="880.0" cy="515" r="9" fill="#10B981" stroke="none" stroke-width="1" /><text x="880.0" y="519" font-size="11" font-weight="900" fill="#FFFFFF" text-anchor="middle" class="">✓</text><text x="897.0" y="519" font-size="11" font-weight="700" fill="#0B1020" text-anchor="start" class="">Có ít nhất một chữ số</text><circle cx="1090.0" cy="515" r="9" fill="#EF4444" stroke="none" stroke-width="1" /><text x="1090.0" y="519" font-size="11" font-weight="900" fill="#FFFFFF" text-anchor="middle" class="">×</text><text x="1107.0" y="519" font-size="11" font-weight="700" fill="#EF4444" text-anchor="start" class="">Thiếu ký tự đặc biệt</text><text x="870" y="546" font-size="11" font-weight="700" fill="#64748B" text-anchor="start" class="">Xác nhận mật khẩu</text><rect x="870" y="554" width="470" height="46" rx="12" fill="#FFFFFF" stroke="#DCE3EE" stroke-width="1" opacity="1" /><text x="884" y="582.0" font-size="13" font-weight="500" fill="#0B1020" text-anchor="start" class="">Twight2026</text><circle cx="1318" cy="577.0" r="11" fill="#10B981" stroke="none" stroke-width="1" /><text x="1318" y="582.0" font-size="13" font-weight="800" fill="#FFFFFF" text-anchor="middle" class="">✓</text><rect x="870" y="636" width="470" height="50" rx="12" fill="url(#brand)" stroke="none" stroke-width="1" opacity="1" filter="url(#tinyShadow)"/><text x="1105.0" y="666.0" font-size="13" font-weight="700" fill="#FFFFFF" text-anchor="middle" class="">Tạo tài khoản</text><text x="1105.0" y="710" font-size="10" font-weight="600" fill="#64748B" text-anchor="middle" class="">Bằng việc đăng ký, bạn đồng ý với Điều khoản và Quyền riêng tư.</text><text x="1426" y="1012" font-size="8" font-weight="700" fill="#94A3B8" text-anchor="end" class="">AUTH-03 · DESKTOP · FINAL 1.2</text></svg>
