<svg xmlns="http://www.w3.org/2000/svg" width="1440" height="1024" viewBox="0 0 1440 1024" role="img" aria-labelledby="title desc">
<title id="title">COMM-06 - Điều hành thành viên - Desktop</title><desc id="desc">Twight Light UI/UX vòng duyệt 2, SVG chỉnh sửa được.</desc>
<defs>
  <linearGradient id="brand" x1="0" y1="0" x2="1" y2="1"><stop offset="0" stop-color="#6C5CE7"/><stop offset="1" stop-color="#496DFF"/></linearGradient>
  <linearGradient id="twilight" x1="0" y1="0" x2="1" y2="1"><stop offset="0" stop-color="#07162B"/><stop offset=".58" stop-color="#2B245B"/><stop offset="1" stop-color="#E05A78"/></linearGradient>
  <linearGradient id="media" x1="0" y1="0" x2="1" y2="1"><stop offset="0" stop-color="#73B8FF"/><stop offset=".5" stop-color="#7C62E5"/><stop offset="1" stop-color="#FF9A8B"/></linearGradient>
  <filter id="shadow" x="-20%" y="-20%" width="140%" height="150%"><feDropShadow dx="0" dy="12" stdDeviation="16" flood-color="#07162B" flood-opacity=".14"/></filter>
  <filter id="tinyShadow" x="-20%" y="-20%" width="140%" height="150%"><feDropShadow dx="0" dy="5" stdDeviation="8" flood-color="#07162B" flood-opacity=".12"/></filter>
  <style>
    text { font-family: Inter, "Be Vietnam Pro", "DejaVu Sans", Arial, sans-serif; }
    .small { letter-spacing:.02em; }
  </style>
</defs><rect x="0" y="0" width="1440" height="1024" rx="0" fill="#F6F8FC" stroke="none" stroke-width="1" opacity="1" /><rect x="0" y="0" width="1440" height="74" rx="0" fill="#FFFFFF" stroke="#DCE3EE" stroke-width="1" opacity="1" /><rect x="22" y="15" width="44" height="44" rx="12" fill="url(#brand)" stroke="none" stroke-width="1" opacity="1" /><text x="44" y="45" font-size="19" font-weight="900" fill="#FFFFFF" text-anchor="middle" class="">T</text><text x="78" y="34" font-size="17" font-weight="900" fill="#0B1020" text-anchor="start" class="">Twight Light</text><text x="78" y="52" font-size="10" font-weight="600" fill="#64748B" text-anchor="start" class="">Multi Social Comunity</text><text x="270" y="42" font-size="13" font-weight="600" fill="#64748B" text-anchor="middle" class="">Trang chủ</text><text x="375" y="42" font-size="13" font-weight="600" fill="#64748B" text-anchor="middle" class="">Video</text><text x="458" y="42" font-size="13" font-weight="600" fill="#64748B" text-anchor="middle" class="">Mua bán</text><text x="557" y="42" font-size="13" font-weight="800" fill="#6C5CE7" text-anchor="middle" class="">Cộng đồng</text><rect x="527" y="67" width="60" height="3" rx="2" fill="#6C5CE7" stroke="none" stroke-width="1" opacity="1" /><rect x="706" y="17" width="380" height="40" rx="20" fill="#F6F8FC" stroke="#DCE3EE" stroke-width="1" opacity="1" /><text x="730" y="43" font-size="11" font-weight="800" fill="#64748B" text-anchor="start" class="">Tìm</text><text x="770" y="43" font-size="12" font-weight="500" fill="#94A3B8" text-anchor="start" class="">người, bài viết, cộng đồng...</text><rect x="1112" y="18" width="38" height="38" rx="11" fill="#FFFFFF" stroke="#DCE3EE" stroke-width="1" opacity="1" /><text x="1131.0" y="42.0" font-size="16" font-weight="700" fill="#0B1020" text-anchor="middle" class="">C</text><rect x="1158" y="18" width="38" height="38" rx="11" fill="#FFFFFF" stroke="#DCE3EE" stroke-width="1" opacity="1" /><text x="1177.0" y="42.0" font-size="16" font-weight="700" fill="#0B1020" text-anchor="middle" class="">N</text><rect x="1204" y="18" width="38" height="38" rx="11" fill="#FFFFFF" stroke="#DCE3EE" stroke-width="1" opacity="1" /><text x="1223.0" y="42.0" font-size="16" font-weight="700" fill="#0B1020" text-anchor="middle" class="">AI</text><circle cx="1306" cy="37" r="22" fill="#6C5CE7" stroke="none" stroke-width="1" /><circle cx="1306" cy="32.16" r="6.16" fill="#FFE0CC" stroke="none" stroke-width="1" /><path d="M 1294.56 47.56 Q 1306 35.9 1317.44 47.56 Z" fill="#FFFFFF" opacity=".95"/><circle cx="1322.28" cy="52.84" r="4.84" fill="#10B981" stroke="#FFFFFF" stroke-width="2" /><text x="1340" y="42" font-size="16" font-weight="800" fill="#64748B" text-anchor="start" class="">⌄</text><rect x="0" y="74" width="224" height="950" rx="0" fill="#FFFFFF" stroke="#DCE3EE" stroke-width="1" opacity="1" /><text x="22" y="108" font-size="10" font-weight="800" fill="#64748B" text-anchor="start" class="">LỐI TẮT CỦA BẠN</text><rect x="22" y="131" width="30" height="30" rx="9" fill="#EAF2FF" stroke="none" stroke-width="1" opacity="1" /><text x="37" y="151" font-size="13" font-weight="800" fill="#6C5CE7" text-anchor="middle" class="">N</text><text x="64" y="151" font-size="12" font-weight="600" fill="#0B1020" text-anchor="start" class="">Nhóm thiết kế</text><rect x="22" y="180" width="30" height="30" rx="9" fill="#EAF2FF" stroke="none" stroke-width="1" opacity="1" /><text x="37" y="200" font-size="13" font-weight="800" fill="#6C5CE7" text-anchor="middle" class="">B</text><text x="64" y="200" font-size="12" font-weight="600" fill="#0B1020" text-anchor="start" class="">Bạn bè</text><rect x="22" y="229" width="30" height="30" rx="9" fill="#EAF2FF" stroke="none" stroke-width="1" opacity="1" /><text x="37" y="249" font-size="13" font-weight="800" fill="#6C5CE7" text-anchor="middle" class="">L</text><text x="64" y="249" font-size="12" font-weight="600" fill="#0B1020" text-anchor="start" class="">Bài đã lưu</text><rect x="22" y="278" width="30" height="30" rx="9" fill="#EAF2FF" stroke="none" stroke-width="1" opacity="1" /><text x="37" y="298" font-size="13" font-weight="800" fill="#6C5CE7" text-anchor="middle" class="">V</text><text x="64" y="298" font-size="12" font-weight="600" fill="#0B1020" text-anchor="start" class="">Video đã xem</text><rect x="22" y="327" width="30" height="30" rx="9" fill="#EAF2FF" stroke="none" stroke-width="1" opacity="1" /><text x="37" y="347" font-size="13" font-weight="800" fill="#6C5CE7" text-anchor="middle" class="">D</text><text x="64" y="347" font-size="12" font-weight="600" fill="#0B1020" text-anchor="start" class="">Backend .NET</text><rect x="22" y="376" width="30" height="30" rx="9" fill="#EAF2FF" stroke="none" stroke-width="1" opacity="1" /><text x="37" y="396" font-size="13" font-weight="800" fill="#6C5CE7" text-anchor="middle" class="">K</text><text x="64" y="396" font-size="12" font-weight="600" fill="#0B1020" text-anchor="start" class="">Blockchain</text><line x1="18" y1="438" x2="206" y2="438" stroke="#DCE3EE" stroke-width="1" /><text x="22" y="468" font-size="12" font-weight="800" fill="#6C5CE7" text-anchor="start" class="">+ Thêm tiện ích</text><text x="22" y="499" font-size="10" font-weight="500" fill="#64748B" text-anchor="start" class="">Sắp xếp và ghim các mục</text><text x="22" y="516" font-size="10" font-weight="500" fill="#64748B" text-anchor="start" class="">bạn dùng thường xuyên.</text><text x="258" y="118" font-size="26" font-weight="900" fill="#0B1020" text-anchor="start" class="">Điều hành thành viên</text><text x="258" y="144" font-size="12" font-weight="500" fill="#64748B" text-anchor="start" class="">Trạng thái hoạt động thể hiện bằng chấm xanh hoặc xám.</text><rect x="258" y="170" width="1148" height="720" rx="16" fill="#FFFFFF" stroke="#DCE3EE" stroke-width="1" opacity="1" filter="url(#tinyShadow)"/><text x="278" y="202" font-size="15" font-weight="800" fill="#0B1020" text-anchor="start" class="">Thành viên · 48.240</text><rect x="282" y="218" width="480" height="42" rx="21" fill="#F6F8FC" stroke="#DCE3EE" stroke-width="1" opacity="1" /><text x="302" y="244" font-size="11" font-weight="500" fill="#94A3B8" text-anchor="start" class="">⌕ Tìm thành viên...</text><circle cx="314" cy="320" r="23" fill="#F97376" stroke="none" stroke-width="1" /><circle cx="314" cy="314.94" r="6.44" fill="#FFE0CC" stroke="none" stroke-width="1" /><path d="M 302.04 331.04 Q 314 318.85 325.96 331.04 Z" fill="#FFFFFF" opacity=".95"/><circle cx="331.02" cy="336.56" r="5.06" fill="#10B981" stroke="#FFFFFF" stroke-width="2" /><text x="352" y="314" font-size="13" font-weight="800" fill="#0B1020" text-anchor="start" class="">An Trần</text><text x="352" y="336" font-size="10" font-weight="600" fill="#64748B" text-anchor="start" class="">Thành viên · Tham gia 08/2026</text><rect x="866" y="304" width="126" height="28" rx="14" fill="#DCFCE7" stroke="none" stroke-width="1" opacity="1" /><text x="929.0" y="323" font-size="11" font-weight="700" fill="#15803D" text-anchor="middle" class="">Đang hoạt động</text><rect x="1070" y="300" width="114" height="38" rx="12" fill="#FFFFFF" stroke="#DCE3EE" stroke-width="1" opacity="1" /><text x="1127.0" y="324.0" font-size="13" font-weight="700" fill="#0B1020" text-anchor="middle" class="">Cảnh báo</text><rect x="1196" y="300" width="88" height="38" rx="12" fill="#FFFFFF" stroke="#DCE3EE" stroke-width="1" opacity="1" /><text x="1240.0" y="324.0" font-size="13" font-weight="700" fill="#0B1020" text-anchor="middle" class="">Ban</text><text x="1352" y="324" font-size="16" font-weight="800" fill="#64748B" text-anchor="middle" class="">•••</text><line x1="282" y1="360" x2="1382" y2="360" stroke="#DCE3EE" stroke-width="1" /><circle cx="314" cy="402" r="23" fill="#10B981" stroke="none" stroke-width="1" /><circle cx="314" cy="396.94" r="6.44" fill="#FFE0CC" stroke="none" stroke-width="1" /><path d="M 302.04 413.04 Q 314 400.85 325.96 413.04 Z" fill="#FFFFFF" opacity=".95"/><circle cx="331.02" cy="418.56" r="5.06" fill="#94A3B8" stroke="#FFFFFF" stroke-width="2" /><text x="352" y="396" font-size="13" font-weight="800" fill="#0B1020" text-anchor="start" class="">Lê Vân</text><text x="352" y="418" font-size="10" font-weight="600" fill="#64748B" text-anchor="start" class="">Thành viên · Tham gia 08/2026</text><rect x="866" y="386" width="126" height="28" rx="14" fill="#F1F5F9" stroke="none" stroke-width="1" opacity="1" /><text x="929.0" y="405" font-size="11" font-weight="700" fill="#64748B" text-anchor="middle" class="">Ngoại tuyến</text><rect x="1070" y="382" width="114" height="38" rx="12" fill="#FFFFFF" stroke="#DCE3EE" stroke-width="1" opacity="1" /><text x="1127.0" y="406.0" font-size="13" font-weight="700" fill="#0B1020" text-anchor="middle" class="">Cảnh báo</text><rect x="1196" y="382" width="88" height="38" rx="12" fill="#FFFFFF" stroke="#DCE3EE" stroke-width="1" opacity="1" /><text x="1240.0" y="406.0" font-size="13" font-weight="700" fill="#0B1020" text-anchor="middle" class="">Ban</text><text x="1352" y="406" font-size="16" font-weight="800" fill="#64748B" text-anchor="middle" class="">•••</text><line x1="282" y1="442" x2="1382" y2="442" stroke="#DCE3EE" stroke-width="1" /><circle cx="314" cy="484" r="23" fill="#3B82F6" stroke="none" stroke-width="1" /><circle cx="314" cy="478.94" r="6.44" fill="#FFE0CC" stroke="none" stroke-width="1" /><path d="M 302.04 495.04 Q 314 482.85 325.96 495.04 Z" fill="#FFFFFF" opacity=".95"/><circle cx="331.02" cy="500.56" r="5.06" fill="#10B981" stroke="#FFFFFF" stroke-width="2" /><text x="352" y="478" font-size="13" font-weight="800" fill="#0B1020" text-anchor="start" class="">Huy Đỗ</text><text x="352" y="500" font-size="10" font-weight="600" fill="#64748B" text-anchor="start" class="">Thành viên · Tham gia 08/2026</text><rect x="866" y="468" width="126" height="28" rx="14" fill="#DCFCE7" stroke="none" stroke-width="1" opacity="1" /><text x="929.0" y="487" font-size="11" font-weight="700" fill="#15803D" text-anchor="middle" class="">Đang hoạt động</text><rect x="1070" y="464" width="114" height="38" rx="12" fill="#FFFFFF" stroke="#DCE3EE" stroke-width="1" opacity="1" /><text x="1127.0" y="488.0" font-size="13" font-weight="700" fill="#0B1020" text-anchor="middle" class="">Cảnh báo</text><rect x="1196" y="464" width="88" height="38" rx="12" fill="#FFFFFF" stroke="#DCE3EE" stroke-width="1" opacity="1" /><text x="1240.0" y="488.0" font-size="13" font-weight="700" fill="#0B1020" text-anchor="middle" class="">Ban</text><text x="1352" y="488" font-size="16" font-weight="800" fill="#64748B" text-anchor="middle" class="">•••</text><line x1="282" y1="524" x2="1382" y2="524" stroke="#DCE3EE" stroke-width="1" /><circle cx="314" cy="566" r="23" fill="#EC4899" stroke="none" stroke-width="1" /><circle cx="314" cy="560.94" r="6.44" fill="#FFE0CC" stroke="none" stroke-width="1" /><path d="M 302.04 577.04 Q 314 564.85 325.96 577.04 Z" fill="#FFFFFF" opacity=".95"/><circle cx="331.02" cy="582.56" r="5.06" fill="#94A3B8" stroke="#FFFFFF" stroke-width="2" /><text x="352" y="560" font-size="13" font-weight="800" fill="#0B1020" text-anchor="start" class="">Mai Phạm</text><text x="352" y="582" font-size="10" font-weight="600" fill="#64748B" text-anchor="start" class="">Thành viên · Tham gia 08/2026</text><rect x="866" y="550" width="126" height="28" rx="14" fill="#F1F5F9" stroke="none" stroke-width="1" opacity="1" /><text x="929.0" y="569" font-size="11" font-weight="700" fill="#64748B" text-anchor="middle" class="">Ngoại tuyến</text><rect x="1070" y="546" width="114" height="38" rx="12" fill="#FFFFFF" stroke="#DCE3EE" stroke-width="1" opacity="1" /><text x="1127.0" y="570.0" font-size="13" font-weight="700" fill="#0B1020" text-anchor="middle" class="">Cảnh báo</text><rect x="1196" y="546" width="88" height="38" rx="12" fill="#FFFFFF" stroke="#DCE3EE" stroke-width="1" opacity="1" /><text x="1240.0" y="570.0" font-size="13" font-weight="700" fill="#0B1020" text-anchor="middle" class="">Ban</text><text x="1352" y="570" font-size="16" font-weight="800" fill="#64748B" text-anchor="middle" class="">•••</text><line x1="282" y1="606" x2="1382" y2="606" stroke="#DCE3EE" stroke-width="1" /><circle cx="314" cy="648" r="23" fill="#F59E0B" stroke="none" stroke-width="1" /><circle cx="314" cy="642.94" r="6.44" fill="#FFE0CC" stroke="none" stroke-width="1" /><path d="M 302.04 659.04 Q 314 646.85 325.96 659.04 Z" fill="#FFFFFF" opacity=".95"/><circle cx="331.02" cy="664.56" r="5.06" fill="#10B981" stroke="#FFFFFF" stroke-width="2" /><text x="352" y="642" font-size="13" font-weight="800" fill="#0B1020" text-anchor="start" class="">Đức Nguyễn</text><text x="352" y="664" font-size="10" font-weight="600" fill="#64748B" text-anchor="start" class="">Thành viên · Tham gia 08/2026</text><rect x="866" y="632" width="126" height="28" rx="14" fill="#DCFCE7" stroke="none" stroke-width="1" opacity="1" /><text x="929.0" y="651" font-size="11" font-weight="700" fill="#15803D" text-anchor="middle" class="">Đang hoạt động</text><rect x="1070" y="628" width="114" height="38" rx="12" fill="#FFFFFF" stroke="#DCE3EE" stroke-width="1" opacity="1" /><text x="1127.0" y="652.0" font-size="13" font-weight="700" fill="#0B1020" text-anchor="middle" class="">Cảnh báo</text><rect x="1196" y="628" width="88" height="38" rx="12" fill="#FFFFFF" stroke="#DCE3EE" stroke-width="1" opacity="1" /><text x="1240.0" y="652.0" font-size="13" font-weight="700" fill="#0B1020" text-anchor="middle" class="">Ban</text><text x="1352" y="652" font-size="16" font-weight="800" fill="#64748B" text-anchor="middle" class="">•••</text><line x1="282" y1="688" x2="1382" y2="688" stroke="#DCE3EE" stroke-width="1" /><circle cx="314" cy="730" r="23" fill="#8B5CF6" stroke="none" stroke-width="1" /><circle cx="314" cy="724.94" r="6.44" fill="#FFE0CC" stroke="none" stroke-width="1" /><path d="M 302.04 741.04 Q 314 728.85 325.96 741.04 Z" fill="#FFFFFF" opacity=".95"/><circle cx="331.02" cy="746.56" r="5.06" fill="#94A3B8" stroke="#FFFFFF" stroke-width="2" /><text x="352" y="724" font-size="13" font-weight="800" fill="#0B1020" text-anchor="start" class="">Lưu Trần</text><text x="352" y="746" font-size="10" font-weight="600" fill="#64748B" text-anchor="start" class="">Thành viên · Tham gia 08/2026</text><rect x="866" y="714" width="126" height="28" rx="14" fill="#F1F5F9" stroke="none" stroke-width="1" opacity="1" /><text x="929.0" y="733" font-size="11" font-weight="700" fill="#64748B" text-anchor="middle" class="">Ngoại tuyến</text><rect x="1070" y="710" width="114" height="38" rx="12" fill="#FFFFFF" stroke="#DCE3EE" stroke-width="1" opacity="1" /><text x="1127.0" y="734.0" font-size="13" font-weight="700" fill="#0B1020" text-anchor="middle" class="">Cảnh báo</text><rect x="1196" y="710" width="88" height="38" rx="12" fill="#FFFFFF" stroke="#DCE3EE" stroke-width="1" opacity="1" /><text x="1240.0" y="734.0" font-size="13" font-weight="700" fill="#0B1020" text-anchor="middle" class="">Ban</text><text x="1352" y="734" font-size="16" font-weight="800" fill="#64748B" text-anchor="middle" class="">•••</text><line x1="282" y1="770" x2="1382" y2="770" stroke="#DCE3EE" stroke-width="1" /><text x="1426" y="1012" font-size="8" font-weight="700" fill="#94A3B8" text-anchor="end" class="">COMM-06 · DESKTOP · VÒNG 2</text></svg>
