<svg xmlns="http://www.w3.org/2000/svg" width="1440" height="1024" viewBox="0 0 1440 1024" role="img" aria-labelledby="title desc">
<title id="title">FEED-04 - Sửa bài viết - Desktop Final</title><desc id="desc">Twight Light UI/UX vòng duyệt 2, SVG chỉnh sửa được.</desc>
<defs>
  <linearGradient id="brand" x1="0" y1="0" x2="1" y2="1"><stop offset="0" stop-color="#6C5CE7"/><stop offset="1" stop-color="#496DFF"/></linearGradient>
  <linearGradient id="twilight" x1="0" y1="0" x2="1" y2="1"><stop offset="0" stop-color="#07162B"/><stop offset=".58" stop-color="#2B245B"/><stop offset="1" stop-color="#E05A78"/></linearGradient>
  <linearGradient id="media" x1="0" y1="0" x2="1" y2="1"><stop offset="0" stop-color="#73B8FF"/><stop offset=".5" stop-color="#7C62E5"/><stop offset="1" stop-color="#FF9A8B"/></linearGradient>
  <filter id="shadow" x="-20%" y="-20%" width="140%" height="150%"><feDropShadow dx="0" dy="12" stdDeviation="16" flood-color="#07162B" flood-opacity=".14"/></filter>
  <filter id="tinyShadow" x="-20%" y="-20%" width="140%" height="150%"><feDropShadow dx="0" dy="5" stdDeviation="8" flood-color="#07162B" flood-opacity=".12"/></filter>
  <style>
    text { font-family: Inter, "Be Vietnam Pro", "DejaVu Sans", Arial, sans-serif; }
    .small { letter-spacing:.02em; }
  </style>
</defs><rect x="0" y="0" width="1440" height="1024" rx="0" fill="#F6F8FC" stroke="none" stroke-width="1" opacity="1" /><rect x="0" y="0" width="1440" height="74" rx="0" fill="#FFFFFF" stroke="#DCE3EE" stroke-width="1" opacity="1" /><rect x="22" y="15" width="44" height="44" rx="12" fill="url(#brand)" stroke="none" stroke-width="1" opacity="1" /><text x="44" y="45" font-size="19" font-weight="900" fill="#FFFFFF" text-anchor="middle" class="">T</text><text x="78" y="34" font-size="17" font-weight="900" fill="#0B1020" text-anchor="start" class="">Twight Light</text><text x="78" y="52" font-size="10" font-weight="600" fill="#64748B" text-anchor="start" class="">Multi Social Comunity</text><text x="270" y="42" font-size="13" font-weight="800" fill="#6C5CE7" text-anchor="middle" class="">Trang chủ</text><rect x="240" y="67" width="60" height="3" rx="2" fill="#6C5CE7" stroke="none" stroke-width="1" opacity="1" /><text x="375" y="42" font-size="13" font-weight="600" fill="#64748B" text-anchor="middle" class="">Video</text><text x="458" y="42" font-size="13" font-weight="600" fill="#64748B" text-anchor="middle" class="">Mua bán</text><text x="557" y="42" font-size="13" font-weight="600" fill="#64748B" text-anchor="middle" class="">Cộng đồng</text><rect x="706" y="17" width="380" height="40" rx="20" fill="#F6F8FC" stroke="#DCE3EE" stroke-width="1" opacity="1" /><text x="730" y="43" font-size="11" font-weight="800" fill="#64748B" text-anchor="start" class="">Tìm</text><text x="770" y="43" font-size="12" font-weight="500" fill="#94A3B8" text-anchor="start" class="">người, bài viết, cộng đồng...</text><rect x="1112" y="18" width="38" height="38" rx="11" fill="#FFFFFF" stroke="#DCE3EE" stroke-width="1" opacity="1" /><text x="1131.0" y="42.0" font-size="16" font-weight="700" fill="#0B1020" text-anchor="middle" class="">C</text><rect x="1158" y="18" width="38" height="38" rx="11" fill="#FFFFFF" stroke="#DCE3EE" stroke-width="1" opacity="1" /><text x="1177.0" y="42.0" font-size="16" font-weight="700" fill="#0B1020" text-anchor="middle" class="">N</text><rect x="1204" y="18" width="38" height="38" rx="11" fill="#FFFFFF" stroke="#DCE3EE" stroke-width="1" opacity="1" /><text x="1223.0" y="42.0" font-size="16" font-weight="700" fill="#0B1020" text-anchor="middle" class="">AI</text><circle cx="1306" cy="37" r="22" fill="#6C5CE7" stroke="none" stroke-width="1" /><circle cx="1306" cy="32.16" r="6.16" fill="#FFE0CC" stroke="none" stroke-width="1" /><path d="M 1294.56 47.56 Q 1306 35.9 1317.44 47.56 Z" fill="#FFFFFF" opacity=".95"/><circle cx="1322.28" cy="52.84" r="4.84" fill="#10B981" stroke="#FFFFFF" stroke-width="2" /><text x="1340" y="42" font-size="16" font-weight="800" fill="#64748B" text-anchor="start" class="">⌄</text><rect x="0" y="74" width="224" height="950" rx="0" fill="#FFFFFF" stroke="#DCE3EE" stroke-width="1" opacity="1" /><text x="22" y="108" font-size="10" font-weight="800" fill="#64748B" text-anchor="start" class="">LỐI TẮT CỦA BẠN</text><rect x="22" y="131" width="30" height="30" rx="9" fill="#EAF2FF" stroke="none" stroke-width="1" opacity="1" /><text x="37" y="151" font-size="13" font-weight="800" fill="#6C5CE7" text-anchor="middle" class="">N</text><text x="64" y="151" font-size="12" font-weight="600" fill="#0B1020" text-anchor="start" class="">Nhóm thiết kế</text><rect x="22" y="180" width="30" height="30" rx="9" fill="#EAF2FF" stroke="none" stroke-width="1" opacity="1" /><text x="37" y="200" font-size="13" font-weight="800" fill="#6C5CE7" text-anchor="middle" class="">B</text><text x="64" y="200" font-size="12" font-weight="600" fill="#0B1020" text-anchor="start" class="">Bạn bè</text><rect x="22" y="229" width="30" height="30" rx="9" fill="#EAF2FF" stroke="none" stroke-width="1" opacity="1" /><text x="37" y="249" font-size="13" font-weight="800" fill="#6C5CE7" text-anchor="middle" class="">L</text><text x="64" y="249" font-size="12" font-weight="600" fill="#0B1020" text-anchor="start" class="">Bài đã lưu</text><rect x="22" y="278" width="30" height="30" rx="9" fill="#EAF2FF" stroke="none" stroke-width="1" opacity="1" /><text x="37" y="298" font-size="13" font-weight="800" fill="#6C5CE7" text-anchor="middle" class="">V</text><text x="64" y="298" font-size="12" font-weight="600" fill="#0B1020" text-anchor="start" class="">Video đã xem</text><rect x="22" y="327" width="30" height="30" rx="9" fill="#EAF2FF" stroke="none" stroke-width="1" opacity="1" /><text x="37" y="347" font-size="13" font-weight="800" fill="#6C5CE7" text-anchor="middle" class="">D</text><text x="64" y="347" font-size="12" font-weight="600" fill="#0B1020" text-anchor="start" class="">Backend .NET</text><rect x="22" y="376" width="30" height="30" rx="9" fill="#EAF2FF" stroke="none" stroke-width="1" opacity="1" /><text x="37" y="396" font-size="13" font-weight="800" fill="#6C5CE7" text-anchor="middle" class="">K</text><text x="64" y="396" font-size="12" font-weight="600" fill="#0B1020" text-anchor="start" class="">Blockchain</text><line x1="18" y1="438" x2="206" y2="438" stroke="#DCE3EE" stroke-width="1" /><text x="22" y="468" font-size="12" font-weight="800" fill="#6C5CE7" text-anchor="start" class="">+ Thêm tiện ích</text><text x="22" y="499" font-size="10" font-weight="500" fill="#64748B" text-anchor="start" class="">Sắp xếp và ghim các mục</text><text x="22" y="516" font-size="10" font-weight="500" fill="#64748B" text-anchor="start" class="">bạn dùng thường xuyên.</text><text x="258" y="116" font-size="26" font-weight="900" fill="#0B1020" text-anchor="start" class="">Chỉnh sửa bài viết</text><text x="258" y="142" font-size="12" font-weight="500" fill="#64748B" text-anchor="start" class="">Soạn nội dung rõ ràng, đẹp và dễ đọc trên mọi thiết bị.</text><rect x="258" y="166" width="820" height="742" rx="16" fill="#FFFFFF" stroke="#DCE3EE" stroke-width="1" opacity="1" filter="url(#tinyShadow)"/><text x="278" y="198" font-size="15" font-weight="800" fill="#0B1020" text-anchor="start" class="">Nội dung bài viết</text><circle cx="292" cy="214" r="22" fill="#6C5CE7" stroke="none" stroke-width="1" /><circle cx="292" cy="209.16" r="6.16" fill="#FFE0CC" stroke="none" stroke-width="1" /><path d="M 280.56 224.56 Q 292 212.9 303.44 224.56 Z" fill="#FFFFFF" opacity=".95"/><circle cx="308.28" cy="229.84" r="4.84" fill="#10B981" stroke="#FFFFFF" stroke-width="2" /><text x="326" y="210" font-size="13" font-weight="800" fill="#0B1020" text-anchor="start" class="">Phạm Minh Sáng</text><rect x="326" y="224" width="154" height="28" rx="14" fill="#F1F5F9" stroke="none" stroke-width="1" opacity="1" /><text x="403.0" y="243" font-size="11" font-weight="700" fill="#0B1020" text-anchor="middle" class="">Bạn bè · Tùy chỉnh</text><text x="280" y="286" font-size="10" font-weight="900" fill="#64748B" text-anchor="start" class="">ĐỊNH DẠNG CHỮ</text><rect x="280" y="304" width="772" height="62" rx="12" fill="#F8FAFC" stroke="#DCE3EE" stroke-width="1" opacity="1" /><rect x="294" y="316" width="132" height="38" rx="9" fill="#FFFFFF" stroke="#DCE3EE" stroke-width="1" opacity="1" /><text x="310" y="340" font-size="11" font-weight="700" fill="#0B1020" text-anchor="start" class="">Inter</text><text x="410" y="340" font-size="12" font-weight="700" fill="#64748B" text-anchor="start" class="">⌄</text><rect x="436" y="316" width="84" height="38" rx="9" fill="#FFFFFF" stroke="#DCE3EE" stroke-width="1" opacity="1" /><text x="452" y="340" font-size="11" font-weight="700" fill="#0B1020" text-anchor="start" class="">16 px</text><text x="504" y="340" font-size="12" font-weight="700" fill="#64748B" text-anchor="start" class="">⌄</text><rect x="534" y="316" width="40" height="38" rx="9" fill="#6C5CE7" stroke="#6C5CE7" stroke-width="1" opacity="1" /><text x="554.0" y="341" font-size="12" font-weight="900" fill="#FFFFFF" text-anchor="middle" class="">B</text><rect x="582" y="316" width="40" height="38" rx="9" fill="#FFFFFF" stroke="#DCE3EE" stroke-width="1" opacity="1" /><text x="602.0" y="341" font-size="12" font-weight="700" fill="#0B1020" text-anchor="middle" class="">I</text><rect x="630" y="316" width="40" height="38" rx="9" fill="#FFFFFF" stroke="#DCE3EE" stroke-width="1" opacity="1" /><text x="650.0" y="341" font-size="12" font-weight="700" fill="#0B1020" text-anchor="middle" class="">U</text><rect x="678" y="316" width="40" height="38" rx="9" fill="#FFFFFF" stroke="#DCE3EE" stroke-width="1" opacity="1" /><text x="698.0" y="341" font-size="12" font-weight="700" fill="#0B1020" text-anchor="middle" class="">S</text><rect x="726" y="316" width="46" height="38" rx="9" fill="#FFFFFF" stroke="#DCE3EE" stroke-width="1" opacity="1" /><text x="749.0" y="341" font-size="12" font-weight="700" fill="#0B1020" text-anchor="middle" class="">H1</text><rect x="780" y="316" width="40" height="38" rx="9" fill="#FFFFFF" stroke="#DCE3EE" stroke-width="1" opacity="1" /><text x="800.0" y="341" font-size="12" font-weight="700" fill="#0B1020" text-anchor="middle" class="">•</text><rect x="828" y="316" width="40" height="38" rx="9" fill="#FFFFFF" stroke="#DCE3EE" stroke-width="1" opacity="1" /><text x="848.0" y="341" font-size="12" font-weight="700" fill="#0B1020" text-anchor="middle" class="">1.</text><rect x="876" y="316" width="40" height="38" rx="9" fill="#FFFFFF" stroke="#DCE3EE" stroke-width="1" opacity="1" /><text x="896.0" y="341" font-size="12" font-weight="700" fill="#0B1020" text-anchor="middle" class="">↗</text><rect x="924" y="316" width="40" height="38" rx="9" fill="#FFFFFF" stroke="#DCE3EE" stroke-width="1" opacity="1" /><text x="944.0" y="341" font-size="12" font-weight="700" fill="#0B1020" text-anchor="middle" class="">:)</text><rect x="280" y="384" width="772" height="220" rx="12" fill="#FFFFFF" stroke="#DCE3EE" stroke-width="1" opacity="1" /><text x="300" y="420" font-size="15" font-weight="800" fill="#0B1020" text-anchor="start" class="">Huy và Lưu vừa hoàn thiện một bản thiết kế mới...</text><text x="300" y="452" font-size="14" font-weight="800" fill="#0B1020" text-anchor="start" class="">Dòng được chọn đang dùng kiểu chữ đậm để tạo điểm nhấn.</text><text x="300" y="486" font-size="13" font-weight="500" fill="#64748B" text-anchor="start" class="">Nội dung thường giữ nhịp đọc thoáng, tránh dùng quá nhiều kiểu chữ.</text><text x="1030" y="580" font-size="10" font-weight="600" fill="#64748B" text-anchor="end" class="">248 / 5.000</text><text x="280" y="644" font-size="10" font-weight="900" fill="#64748B" text-anchor="start" class="">ẢNH VÀ VIDEO</text><rect x="280" y="664" width="138" height="96" rx="12" fill="url(#media)" stroke="#DCE3EE" stroke-width="1" opacity="1" /><rect x="434" y="664" width="138" height="96" rx="12" fill="url(#media)" stroke="#DCE3EE" stroke-width="1" opacity="1" /><rect x="588" y="664" width="138" height="96" rx="12" fill="#F6F8FC" stroke="#DCE3EE" stroke-width="1" opacity="1" /><text x="657" y="716" font-size="12" font-weight="800" fill="#6C5CE7" text-anchor="middle" class="">+ Thêm</text><line x1="280" y1="790" x2="1052" y2="790" stroke="#DCE3EE" stroke-width="1" /><rect x="280" y="816" width="132" height="44" rx="12" fill="#FFFFFF" stroke="#DCE3EE" stroke-width="1" opacity="1" /><text x="346.0" y="843.0" font-size="13" font-weight="700" fill="#0B1020" text-anchor="middle" class="">Hủy</text><rect x="880" y="816" width="172" height="44" rx="12" fill="url(#brand)" stroke="none" stroke-width="1" opacity="1" filter="url(#tinyShadow)"/><text x="966.0" y="843.0" font-size="13" font-weight="700" fill="#FFFFFF" text-anchor="middle" class="">Lưu thay đổi</text><rect x="1102" y="166" width="304" height="420" rx="16" fill="#FFFFFF" stroke="#DCE3EE" stroke-width="1" opacity="1" filter="url(#tinyShadow)"/><text x="1122" y="198" font-size="15" font-weight="800" fill="#0B1020" text-anchor="start" class="">Phạm vi hiển thị</text><text x="1122" y="218" font-size="11" font-weight="500" fill="#64748B" text-anchor="start" class="">Ai có thể xem bài viết này?</text><rect x="1124" y="214" width="260" height="52" rx="12" fill="#FFFFFF" stroke="#DCE3EE" stroke-width="1" opacity="1" /><circle cx="1148" cy="240" r="9" fill="#FFFFFF" stroke="#6C5CE7" stroke-width="2" /><text x="1170" y="244" font-size="12" font-weight="700" fill="#0B1020" text-anchor="start" class="">Tất cả mọi người</text><rect x="1124" y="282" width="260" height="52" rx="12" fill="#EFEAFF" stroke="#6C5CE7" stroke-width="1" opacity="1" /><circle cx="1148" cy="308" r="9" fill="#FFFFFF" stroke="#6C5CE7" stroke-width="2" /><circle cx="1148" cy="308" r="5" fill="#6C5CE7" stroke="none" stroke-width="1" /><text x="1170" y="312" font-size="12" font-weight="800" fill="#6C5CE7" text-anchor="start" class="">Bạn bè</text><rect x="1124" y="350" width="260" height="52" rx="12" fill="#FFFFFF" stroke="#DCE3EE" stroke-width="1" opacity="1" /><circle cx="1148" cy="376" r="9" fill="#FFFFFF" stroke="#6C5CE7" stroke-width="2" /><text x="1170" y="380" font-size="12" font-weight="700" fill="#0B1020" text-anchor="start" class="">Chỉ mình tôi</text><rect x="1124" y="418" width="260" height="52" rx="12" fill="#FFFFFF" stroke="#DCE3EE" stroke-width="1" opacity="1" /><circle cx="1148" cy="444" r="9" fill="#FFFFFF" stroke="#6C5CE7" stroke-width="2" /><text x="1170" y="448" font-size="12" font-weight="700" fill="#0B1020" text-anchor="start" class="">Tùy chỉnh</text><rect x="1124" y="520" width="260" height="42" rx="10" fill="#EEF6FF" stroke="#BFDBFE" stroke-width="1" opacity="1" /><text x="1140" y="546" font-size="10" font-weight="700" fill="#1D4ED8" text-anchor="start" class="">Tùy chỉnh danh sách người xem</text><text x="1426" y="1012" font-size="8" font-weight="700" fill="#94A3B8" text-anchor="end" class="">FEED-04 · DESKTOP · FINAL 1.2</text></svg>
