<svg xmlns="http://www.w3.org/2000/svg" width="1440" height="1024" viewBox="0 0 1440 1024" role="img" aria-labelledby="title desc">
<title id="title">MKT-04 - Xác nhận đơn hàng - Desktop</title><desc id="desc">Twight Light UI/UX vòng duyệt 2, SVG chỉnh sửa được.</desc>
<defs>
  <linearGradient id="brand" x1="0" y1="0" x2="1" y2="1"><stop offset="0" stop-color="#6C5CE7"/><stop offset="1" stop-color="#496DFF"/></linearGradient>
  <linearGradient id="twilight" x1="0" y1="0" x2="1" y2="1"><stop offset="0" stop-color="#07162B"/><stop offset=".58" stop-color="#2B245B"/><stop offset="1" stop-color="#E05A78"/></linearGradient>
  <linearGradient id="media" x1="0" y1="0" x2="1" y2="1"><stop offset="0" stop-color="#73B8FF"/><stop offset=".5" stop-color="#7C62E5"/><stop offset="1" stop-color="#FF9A8B"/></linearGradient>
  <filter id="shadow" x="-20%" y="-20%" width="140%" height="150%"><feDropShadow dx="0" dy="12" stdDeviation="16" flood-color="#07162B" flood-opacity=".14"/></filter>
  <filter id="tinyShadow" x="-20%" y="-20%" width="140%" height="150%"><feDropShadow dx="0" dy="5" stdDeviation="8" flood-color="#07162B" flood-opacity=".12"/></filter>
  <style>
    text { font-family: Inter, "Be Vietnam Pro", "DejaVu Sans", Arial, sans-serif; }
    .small { letter-spacing:.02em; }
  </style>
</defs><rect x="0" y="0" width="1440" height="1024" rx="0" fill="#F6F8FC" stroke="none" stroke-width="1" opacity="1" /><rect x="0" y="0" width="1440" height="74" rx="0" fill="#FFFFFF" stroke="#DCE3EE" stroke-width="1" opacity="1" /><rect x="22" y="15" width="44" height="44" rx="12" fill="url(#brand)" stroke="none" stroke-width="1" opacity="1" /><text x="44" y="45" font-size="19" font-weight="900" fill="#FFFFFF" text-anchor="middle" class="">T</text><text x="78" y="34" font-size="17" font-weight="900" fill="#0B1020" text-anchor="start" class="">Twight Light</text><text x="78" y="52" font-size="10" font-weight="600" fill="#64748B" text-anchor="start" class="">Multi Social Comunity</text><text x="270" y="42" font-size="13" font-weight="600" fill="#64748B" text-anchor="middle" class="">Trang chủ</text><text x="375" y="42" font-size="13" font-weight="600" fill="#64748B" text-anchor="middle" class="">Video</text><text x="458" y="42" font-size="13" font-weight="800" fill="#6C5CE7" text-anchor="middle" class="">Mua bán</text><rect x="428" y="67" width="60" height="3" rx="2" fill="#6C5CE7" stroke="none" stroke-width="1" opacity="1" /><text x="557" y="42" font-size="13" font-weight="600" fill="#64748B" text-anchor="middle" class="">Cộng đồng</text><rect x="706" y="17" width="380" height="40" rx="20" fill="#F6F8FC" stroke="#DCE3EE" stroke-width="1" opacity="1" /><text x="730" y="43" font-size="11" font-weight="800" fill="#64748B" text-anchor="start" class="">Tìm</text><text x="770" y="43" font-size="12" font-weight="500" fill="#94A3B8" text-anchor="start" class="">người, bài viết, cộng đồng...</text><rect x="1112" y="18" width="38" height="38" rx="11" fill="#FFFFFF" stroke="#DCE3EE" stroke-width="1" opacity="1" /><text x="1131.0" y="42.0" font-size="16" font-weight="700" fill="#0B1020" text-anchor="middle" class="">C</text><rect x="1158" y="18" width="38" height="38" rx="11" fill="#FFFFFF" stroke="#DCE3EE" stroke-width="1" opacity="1" /><text x="1177.0" y="42.0" font-size="16" font-weight="700" fill="#0B1020" text-anchor="middle" class="">N</text><rect x="1204" y="18" width="38" height="38" rx="11" fill="#FFFFFF" stroke="#DCE3EE" stroke-width="1" opacity="1" /><text x="1223.0" y="42.0" font-size="16" font-weight="700" fill="#0B1020" text-anchor="middle" class="">AI</text><circle cx="1306" cy="37" r="22" fill="#6C5CE7" stroke="none" stroke-width="1" /><circle cx="1306" cy="32.16" r="6.16" fill="#FFE0CC" stroke="none" stroke-width="1" /><path d="M 1294.56 47.56 Q 1306 35.9 1317.44 47.56 Z" fill="#FFFFFF" opacity=".95"/><circle cx="1322.28" cy="52.84" r="4.84" fill="#10B981" stroke="#FFFFFF" stroke-width="2" /><text x="1340" y="42" font-size="16" font-weight="800" fill="#64748B" text-anchor="start" class="">⌄</text><rect x="0" y="74" width="224" height="950" rx="0" fill="#FFFFFF" stroke="#DCE3EE" stroke-width="1" opacity="1" /><text x="22" y="108" font-size="10" font-weight="800" fill="#64748B" text-anchor="start" class="">LỐI TẮT CỦA BẠN</text><rect x="22" y="131" width="30" height="30" rx="9" fill="#EAF2FF" stroke="none" stroke-width="1" opacity="1" /><text x="37" y="151" font-size="13" font-weight="800" fill="#6C5CE7" text-anchor="middle" class="">N</text><text x="64" y="151" font-size="12" font-weight="600" fill="#0B1020" text-anchor="start" class="">Nhóm thiết kế</text><rect x="22" y="180" width="30" height="30" rx="9" fill="#EAF2FF" stroke="none" stroke-width="1" opacity="1" /><text x="37" y="200" font-size="13" font-weight="800" fill="#6C5CE7" text-anchor="middle" class="">B</text><text x="64" y="200" font-size="12" font-weight="600" fill="#0B1020" text-anchor="start" class="">Bạn bè</text><rect x="22" y="229" width="30" height="30" rx="9" fill="#EAF2FF" stroke="none" stroke-width="1" opacity="1" /><text x="37" y="249" font-size="13" font-weight="800" fill="#6C5CE7" text-anchor="middle" class="">L</text><text x="64" y="249" font-size="12" font-weight="600" fill="#0B1020" text-anchor="start" class="">Bài đã lưu</text><rect x="22" y="278" width="30" height="30" rx="9" fill="#EAF2FF" stroke="none" stroke-width="1" opacity="1" /><text x="37" y="298" font-size="13" font-weight="800" fill="#6C5CE7" text-anchor="middle" class="">V</text><text x="64" y="298" font-size="12" font-weight="600" fill="#0B1020" text-anchor="start" class="">Video đã xem</text><rect x="22" y="327" width="30" height="30" rx="9" fill="#EAF2FF" stroke="none" stroke-width="1" opacity="1" /><text x="37" y="347" font-size="13" font-weight="800" fill="#6C5CE7" text-anchor="middle" class="">D</text><text x="64" y="347" font-size="12" font-weight="600" fill="#0B1020" text-anchor="start" class="">Backend .NET</text><rect x="22" y="376" width="30" height="30" rx="9" fill="#EAF2FF" stroke="none" stroke-width="1" opacity="1" /><text x="37" y="396" font-size="13" font-weight="800" fill="#6C5CE7" text-anchor="middle" class="">K</text><text x="64" y="396" font-size="12" font-weight="600" fill="#0B1020" text-anchor="start" class="">Blockchain</text><line x1="18" y1="438" x2="206" y2="438" stroke="#DCE3EE" stroke-width="1" /><text x="22" y="468" font-size="12" font-weight="800" fill="#6C5CE7" text-anchor="start" class="">+ Thêm tiện ích</text><text x="22" y="499" font-size="10" font-weight="500" fill="#64748B" text-anchor="start" class="">Sắp xếp và ghim các mục</text><text x="22" y="516" font-size="10" font-weight="500" fill="#64748B" text-anchor="start" class="">bạn dùng thường xuyên.</text><text x="258" y="118" font-size="26" font-weight="900" fill="#0B1020" text-anchor="start" class="">Xác nhận yêu cầu mua</text><text x="258" y="144" font-size="12" font-weight="500" fill="#64748B" text-anchor="start" class="">Ứng dụng chỉ kết nối hai bên; thanh toán thực hiện trực tiếp.</text><rect x="258" y="170" width="720" height="700" rx="16" fill="#FFFFFF" stroke="#DCE3EE" stroke-width="1" opacity="1" filter="url(#tinyShadow)"/><text x="278" y="202" font-size="15" font-weight="800" fill="#0B1020" text-anchor="start" class="">Sản phẩm đã chọn</text><rect x="282" y="228" width="160" height="120" rx="12" fill="url(#media)" stroke="none" stroke-width="1" opacity="1" /><text x="468" y="248" font-size="14" font-weight="900" fill="#0B1020" text-anchor="start" class="">Bàn phím cơ Custom</text><text x="468" y="276" font-size="11" font-weight="700" fill="#64748B" text-anchor="start" class="">Phân loại: Switch Red</text><text x="468" y="304" font-size="16" font-weight="900" fill="#6C5CE7" text-anchor="start" class="">1.250.000đ</text><text x="282" y="400" font-size="12" font-weight="800" fill="#0B1020" text-anchor="start" class="">Số lượng</text><rect x="382" y="382" width="116" height="28" rx="14" fill="#F6F8FC" stroke="none" stroke-width="1" opacity="1" /><text x="440.0" y="401" font-size="11" font-weight="700" fill="#0B1020" text-anchor="middle" class="">−   1   +</text><text x="282" y="450" font-size="11" font-weight="700" fill="#64748B" text-anchor="start" class="">Lời nhắn cho người bán</text><rect x="282" y="458" width="672" height="46" rx="12" fill="#FFFFFF" stroke="#DCE3EE" stroke-width="1" opacity="1" /><text x="296" y="486.0" font-size="13" font-weight="500" fill="#0B1020" text-anchor="start" class="">Mình muốn xem hàng lúc 18:00 hôm nay.</text><rect x="282" y="558" width="672" height="120" rx="12" fill="#FFF7ED" stroke="#FED7AA" stroke-width="1" opacity="1" /><text x="304" y="590" font-size="11" font-weight="500" fill="#9A3412" text-anchor="start" class="">Không có giữ tiền hoặc hoàn tiền trong ứng dụng. Hai bên tự xác minh</text><text x="304" y="608" font-size="11" font-weight="500" fill="#9A3412" text-anchor="start" class="">thông tin và giao dịch.</text><rect x="1002" y="170" width="404" height="700" rx="16" fill="#FFFFFF" stroke="#DCE3EE" stroke-width="1" opacity="1" filter="url(#tinyShadow)"/><text x="1022" y="202" font-size="15" font-weight="800" fill="#0B1020" text-anchor="start" class="">Tóm tắt</text><text x="1026" y="240" font-size="11" font-weight="700" fill="#64748B" text-anchor="start" class="">Sản phẩm</text><text x="1382" y="240" font-size="12" font-weight="900" fill="#0B1020" text-anchor="end" class="">1.250.000đ</text><line x1="1026" y1="260" x2="1382" y2="260" stroke="#DCE3EE" stroke-width="1" /><text x="1026" y="298" font-size="11" font-weight="700" fill="#64748B" text-anchor="start" class="">Số lượng</text><text x="1382" y="298" font-size="12" font-weight="900" fill="#0B1020" text-anchor="end" class="">1</text><line x1="1026" y1="318" x2="1382" y2="318" stroke="#DCE3EE" stroke-width="1" /><text x="1026" y="356" font-size="11" font-weight="700" fill="#64748B" text-anchor="start" class="">Phí nền tảng</text><text x="1382" y="356" font-size="12" font-weight="900" fill="#0B1020" text-anchor="end" class="">0đ</text><line x1="1026" y1="376" x2="1382" y2="376" stroke="#DCE3EE" stroke-width="1" /><text x="1026" y="414" font-size="11" font-weight="700" fill="#64748B" text-anchor="start" class="">Tổng trao đổi</text><text x="1382" y="414" font-size="12" font-weight="900" fill="#0B1020" text-anchor="end" class="">1.250.000đ</text><line x1="1026" y1="434" x2="1382" y2="434" stroke="#DCE3EE" stroke-width="1" /><rect x="1026" y="518" width="356" height="44" rx="12" fill="url(#brand)" stroke="none" stroke-width="1" opacity="1" filter="url(#tinyShadow)"/><text x="1204.0" y="545.0" font-size="13" font-weight="700" fill="#FFFFFF" text-anchor="middle" class="">Gửi yêu cầu mua</text><rect x="1026" y="578" width="356" height="44" rx="12" fill="#FFFFFF" stroke="#DCE3EE" stroke-width="1" opacity="1" /><text x="1204.0" y="605.0" font-size="13" font-weight="700" fill="#0B1020" text-anchor="middle" class="">Nhắn người bán</text><text x="1426" y="1012" font-size="8" font-weight="700" fill="#94A3B8" text-anchor="end" class="">MKT-04 · DESKTOP · VÒNG 2</text></svg>
